<mxfile host="c74e4875-4356-43db-875c-89b1575be95a" modified="2020-07-30T20:00:32.597Z" agent="5.0 (Windows NT 10.0; Win64; x64) AppleWebKit/537.36 (KHTML, like Gecko) Code/1.47.3 Chrome/78.0.3904.130 Electron/7.3.2 Safari/537.36" etag="dz_m6b3t55t1_VzexG-v" version="13.1.3" pages="3">
    <diagram id="6hGFLwfOUW9BJ-s0fimq" name="Input">
        <mxGraphModel dx="602" dy="394" grid="1" gridSize="10" guides="1" tooltips="1" connect="1" arrows="1" fold="1" page="1" pageScale="1" pageWidth="827" pageHeight="1169" math="0" shadow="0">
            <root>
                <mxCell id="0"/>
                <mxCell id="1" parent="0"/>
                <mxCell id="3" value="" style="verticalLabelPosition=bottom;verticalAlign=top;html=1;shadow=0;dashed=0;strokeWidth=1;shape=mxgraph.android.phone2;strokeColor=#c0c0c0;" parent="1" vertex="1">
                    <mxGeometry x="210" y="10" width="200" height="390" as="geometry"/>
                </mxCell>
                <mxCell id="4" value="&lt;h1&gt;MyCOVID Risk&lt;/h1&gt;&lt;p&gt;Enter the state were the social gathering will take place:&lt;/p&gt;&lt;p&gt;&lt;br&gt;&lt;/p&gt;&lt;p&gt;Expected number of attendees:&lt;/p&gt;&lt;p&gt;&lt;br&gt;&lt;/p&gt;&lt;p&gt;&lt;br&gt;&lt;/p&gt;&lt;p&gt;&lt;br&gt;&lt;/p&gt;&lt;p&gt;&lt;br&gt;&lt;/p&gt;&lt;p&gt;&lt;br&gt;&lt;/p&gt;" style="text;html=1;spacing=5;spacingTop=-20;whiteSpace=wrap;overflow=hidden;rounded=0;fillColor=#f5f5f5;strokeColor=#666666;fontColor=#333333;" parent="1" vertex="1">
                    <mxGeometry x="220.5" y="48" width="181" height="313" as="geometry"/>
                </mxCell>
                <mxCell id="5" value="D" style="rounded=1;whiteSpace=wrap;html=1;" parent="1" vertex="1">
                    <mxGeometry x="260" y="130" width="100" height="20" as="geometry"/>
                </mxCell>
                <mxCell id="6" value="10" style="rounded=1;whiteSpace=wrap;html=1;" parent="1" vertex="1">
                    <mxGeometry x="260" y="190" width="100" height="20" as="geometry"/>
                </mxCell>
                <mxCell id="7" value="Calculate" style="strokeWidth=1;shadow=0;dashed=0;align=center;html=1;shape=mxgraph.mockup.buttons.button;strokeColor=#A50040;fontColor=#ffffff;mainText=;buttonStyle=round;fontSize=17;fontStyle=1;fillColor=#d80073;whiteSpace=wrap;" parent="1" vertex="1">
                    <mxGeometry x="240" y="240" width="150" height="50" as="geometry"/>
                </mxCell>
                <mxCell id="9" value="Advertisement" style="shape=ext;double=1;rounded=0;whiteSpace=wrap;html=1;fillColor=#d5e8d4;strokeColor=#82b366;" parent="1" vertex="1">
                    <mxGeometry x="220.5" y="300" width="179.5" height="60" as="geometry"/>
                </mxCell>
            </root>
        </mxGraphModel>
    </diagram>
    <diagram name="Output" id="U9X8IkyhLpAVLeixXRjz">
        <mxGraphModel dx="386" dy="394" grid="1" gridSize="10" guides="1" tooltips="1" connect="1" arrows="1" fold="1" page="1" pageScale="1" pageWidth="827" pageHeight="1169" math="0" shadow="0">
            <root>
                <mxCell id="dHP_qEyEY4n7bWfC3pvl-0"/>
                <mxCell id="dHP_qEyEY4n7bWfC3pvl-1" parent="dHP_qEyEY4n7bWfC3pvl-0"/>
                <mxCell id="dHP_qEyEY4n7bWfC3pvl-2" value="" style="verticalLabelPosition=bottom;verticalAlign=top;html=1;shadow=0;dashed=0;strokeWidth=1;shape=mxgraph.android.phone2;strokeColor=#c0c0c0;" parent="dHP_qEyEY4n7bWfC3pvl-1" vertex="1">
                    <mxGeometry x="210" y="10" width="200" height="390" as="geometry"/>
                </mxCell>
                <mxCell id="dHP_qEyEY4n7bWfC3pvl-3" value="&lt;h1&gt;MyCOVID Risk&lt;/h1&gt;" style="text;html=1;spacing=5;spacingTop=-20;whiteSpace=wrap;overflow=hidden;rounded=0;fillColor=#f5f5f5;strokeColor=#666666;fontColor=#333333;" parent="dHP_qEyEY4n7bWfC3pvl-1" vertex="1">
                    <mxGeometry x="220.5" y="48" width="181" height="313" as="geometry"/>
                </mxCell>
                <mxCell id="-zzOTSVBhddZBZjdwLkA-0" value="&lt;p&gt;&lt;br&gt;Positivity rate = 2.31%&lt;br&gt;Attendees = 10&lt;/p&gt;&lt;p&gt;&lt;b&gt;The probability that at least one guest has COVID19 is 20.8 percent.&lt;/b&gt;&amp;nbsp;&lt;/p&gt;&lt;p&gt;&lt;span&gt;The probability that 0 guests have COVID19 is 79.2 percent.&lt;/span&gt;&lt;/p&gt;&lt;p&gt;&lt;span&gt;&lt;br&gt;&lt;/span&gt;&lt;/p&gt;" style="text;html=1;strokeColor=none;fillColor=none;spacing=5;spacingTop=-20;whiteSpace=wrap;overflow=hidden;rounded=0;" parent="dHP_qEyEY4n7bWfC3pvl-1" vertex="1">
                    <mxGeometry x="220.5" y="80" width="179.5" height="140" as="geometry"/>
                </mxCell>
                <mxCell id="tCRK8i_Z0vexfGog_T0x-0" value="Start Over" style="strokeWidth=1;shadow=0;dashed=0;align=center;html=1;shape=mxgraph.mockup.buttons.button;strokeColor=#A50040;fontColor=#ffffff;mainText=;buttonStyle=round;fontSize=17;fontStyle=1;fillColor=#d80073;whiteSpace=wrap;" parent="dHP_qEyEY4n7bWfC3pvl-1" vertex="1">
                    <mxGeometry x="240" y="240" width="150" height="50" as="geometry"/>
                </mxCell>
                <mxCell id="0joBpI8CImn8o49Pu0l--0" value="Advertisement" style="shape=ext;double=1;rounded=0;whiteSpace=wrap;html=1;fillColor=#d5e8d4;strokeColor=#82b366;" parent="dHP_qEyEY4n7bWfC3pvl-1" vertex="1">
                    <mxGeometry x="220.5" y="300" width="179.5" height="60" as="geometry"/>
                </mxCell>
            </root>
        </mxGraphModel>
    </diagram>
    <diagram id="yPKNBDlFu5WDAQAM5Bif" name="Architecture">
        <mxGraphModel dx="602" dy="394" grid="1" gridSize="10" guides="1" tooltips="1" connect="1" arrows="1" fold="1" page="1" pageScale="1" pageWidth="850" pageHeight="1100" math="0" shadow="0">
            <root>
                <mxCell id="KZj8NRCbWXv1936Zy2uD-0"/>
                <mxCell id="KZj8NRCbWXv1936Zy2uD-1" parent="KZj8NRCbWXv1936Zy2uD-0"/>
                <mxCell id="KZj8NRCbWXv1936Zy2uD-2" value="iPhone&lt;br&gt;or&lt;br&gt;Android&lt;br&gt;App" style="rounded=0;whiteSpace=wrap;html=1;" parent="KZj8NRCbWXv1936Zy2uD-1" vertex="1">
                    <mxGeometry x="80" y="161" width="50" height="60" as="geometry"/>
                </mxCell>
                <mxCell id="KZj8NRCbWXv1936Zy2uD-4" value="" style="rounded=0;whiteSpace=wrap;html=1;" parent="KZj8NRCbWXv1936Zy2uD-1" vertex="1">
                    <mxGeometry x="240" y="110" width="200" height="160" as="geometry"/>
                </mxCell>
                <mxCell id="KZj8NRCbWXv1936Zy2uD-5" value="Database" style="shape=cylinder;whiteSpace=wrap;html=1;boundedLbl=1;backgroundOutline=1;" parent="KZj8NRCbWXv1936Zy2uD-1" vertex="1">
                    <mxGeometry x="360" y="183" width="60" height="80" as="geometry"/>
                </mxCell>
                <mxCell id="KZj8NRCbWXv1936Zy2uD-6" value="Positivity&lt;br&gt;API" style="rounded=1;whiteSpace=wrap;html=1;" parent="KZj8NRCbWXv1936Zy2uD-1" vertex="1">
                    <mxGeometry x="260" y="203" width="60" height="60" as="geometry"/>
                </mxCell>
                <mxCell id="KZj8NRCbWXv1936Zy2uD-8" value="Probability&lt;br&gt;API" style="rounded=1;whiteSpace=wrap;html=1;" parent="KZj8NRCbWXv1936Zy2uD-1" vertex="1">
                    <mxGeometry x="260" y="137" width="60" height="60" as="geometry"/>
                </mxCell>
                <mxCell id="KZj8NRCbWXv1936Zy2uD-3" value="Webserver" style="text;html=1;strokeColor=none;fillColor=none;align=center;verticalAlign=middle;whiteSpace=wrap;rounded=0;" vertex="1" parent="KZj8NRCbWXv1936Zy2uD-1">
                    <mxGeometry x="305" y="114" width="70" height="20" as="geometry"/>
                </mxCell>
                <mxCell id="KZj8NRCbWXv1936Zy2uD-11" value="" style="endArrow=classic;startArrow=classic;html=1;exitX=1;exitY=0.5;exitDx=0;exitDy=0;entryX=0;entryY=0.5;entryDx=0;entryDy=0;" edge="1" parent="KZj8NRCbWXv1936Zy2uD-1" source="KZj8NRCbWXv1936Zy2uD-2" target="KZj8NRCbWXv1936Zy2uD-4">
                    <mxGeometry width="50" height="50" relative="1" as="geometry">
                        <mxPoint x="280" y="230" as="sourcePoint"/>
                        <mxPoint x="330" y="180" as="targetPoint"/>
                    </mxGeometry>
                </mxCell>
                <mxCell id="KZj8NRCbWXv1936Zy2uD-12" value="Binomial&lt;br&gt;Calculator" style="rounded=1;whiteSpace=wrap;html=1;" vertex="1" parent="KZj8NRCbWXv1936Zy2uD-1">
                    <mxGeometry x="345" y="137" width="80" height="27" as="geometry"/>
                </mxCell>
            </root>
        </mxGraphModel>
    </diagram>
</mxfile>